<svg id="Capa_1" data-name="Capa 1" xmlns="http://www.w3.org/2000/svg" viewBox="0 0 97.9 100"><defs><style>.cls-1{opacity:0.8;}.cls-2{fill:#fff;}</style></defs><title>caabezotes-web-plantilla</title><g class="cls-1"><path class="cls-2" d="M63.42,50.41l-.05,0,.11-.08Zm-1.15-5.32a.16.16,0,1,1,.19.25,1.06,1.06,0,0,0-.42.59.49.49,0,0,0,0,.24.4.4,0,0,0,.09.21.72.72,0,0,0,.42.24.15.15,0,0,1,.12.19.15.15,0,0,1-.19.12,1,1,0,0,1-.6-.36.71.71,0,0,1-.15-.33.77.77,0,0,1,0-.37,1.35,1.35,0,0,1,.54-.78m-3.2-3.5a1.09,1.09,0,0,1-.07-.4h0a1.11,1.11,0,0,1,.14-.54,8.49,8.49,0,0,0-1.22.57l.75.25.41.13m.56.17h0l0,0h.06l.09-.08.12-.17c.81-1.48-.62-1.41-.62-.36h0a.77.77,0,0,0,.06.3l0,0a1.08,1.08,0,0,0,.11.18ZM60.08,40h0a.15.15,0,0,1,.18.09,1.91,1.91,0,0,1,0,1.58,1.88,1.88,0,0,1-.16.23,1.12,1.12,0,0,1-.2.17.17.17,0,0,1-.14,0l-1.15-.36-1.06-.36a.16.16,0,0,1,0-.28,10.13,10.13,0,0,1,1.85-.87l.38-.12.38-.11h0Zm-3.93,1a.17.17,0,0,1-.23,0,.16.16,0,0,1,0-.22,7.86,7.86,0,0,1,2.1-1.6,9.88,9.88,0,0,1,2.5-.88.16.16,0,1,1,.07.31,9.26,9.26,0,0,0-2.42.85,7.63,7.63,0,0,0-2,1.54M52.49,43.4a8.75,8.75,0,0,1-2.29.54,8.4,8.4,0,0,0-3.83,1.24,10.31,10.31,0,0,0-2.52,3.13c-.32.52-.65,1-1,1.56h0l-.12.16c2.24-.13,2.69-.88,3.19-1.71a4.31,4.31,0,0,1,1.3-1.5,3.51,3.51,0,0,1,1.94-.53,4.71,4.71,0,0,0,2.59-.8h0a2.66,2.66,0,0,0,.73-2.08m-5.64-.82,0,0a18,18,0,0,1,2.76-.7,10.58,10.58,0,0,0,4-1.35l.15-.11.06-.05a4.56,4.56,0,0,0,1.27-2,11.6,11.6,0,0,0,.49-2l-.35.27-.22.16A5.28,5.28,0,0,0,53.86,38,6,6,0,0,1,52.94,39a6.44,6.44,0,0,1-2.55,1.21,5.49,5.49,0,0,0-3.54,2.35M48.75,33c.68-.78,1.36-1.54,2-2.28s1.17-1.24,1.77-1.83a7,7,0,0,0-2.37-.21c-.32.06-.37.52-.42,1a3.71,3.71,0,0,1-.21,1,4.79,4.79,0,0,1-.33.64h0A3.09,3.09,0,0,0,48.75,33m-2.56,3.1c.69-.88,1.41-1.75,2.13-2.59h0a3.55,3.55,0,0,1,.54-2.39h0a4.79,4.79,0,0,0,.3-.6,3.2,3.2,0,0,0,.17-.87,4,4,0,0,1,.16-.85H49.4l-.5.09h0c-.32.05-.42.43-.54.85a5.81,5.81,0,0,1-.21.63h0a5.64,5.64,0,0,1-.36.69,3.71,3.71,0,0,0-.5,1.14c-.09.46-.14.84-.19,1.3,0,.11,0,.23-.07.51a3.27,3.27,0,0,1-.41,1.09,3.57,3.57,0,0,0-.38,1m-2.3,3c.6-.83,1.22-1.65,1.85-2.45a.32.32,0,0,1,0-.09,3.08,3.08,0,0,1,.47-1.68,2.85,2.85,0,0,0,.36-.94c0-.08,0-.3.06-.51.06-.45.11-.83.2-1.32a4.07,4.07,0,0,1,.55-1.28,6.88,6.88,0,0,0,.35-.65h0a5.44,5.44,0,0,0,.19-.57,3.53,3.53,0,0,1,.22-.65c-.44,0-.87.08-1.3.14s-.91.14-1.36.23l-.84.19a1.86,1.86,0,0,1,.1.25c.06.18.13.38.19.59a7.34,7.34,0,0,1,0,4c-.12.39-.28.76-.43,1.14a5.88,5.88,0,0,0-.6,3.56m-1.72,2.43c.45-.66.91-1.31,1.38-2a6,6,0,0,1,.53-4.2c.15-.37.3-.73.41-1.1a6.83,6.83,0,0,0,0-3.79c-.06-.2-.12-.39-.18-.56s-.07-.19-.11-.28l-.88.26c-.19.08-.14.49-.07,1.11a7,7,0,0,1-.76,4.63h0l-.06.11c-.69,1.2-1.49,2.57-.24,5.78m-2.36,3.62c.66-1.06,1.35-2.13,2.06-3.19l0,0c-1.46-3.57-.58-5.08.17-6.39l.07-.11h0a6.68,6.68,0,0,0,.7-4.36,4.91,4.91,0,0,1-.06-1l-.55.21h0c-.56.26-.48,1.25-.39,2.16a6,6,0,0,1,0,1.46,8.17,8.17,0,0,1-.44,1.39,8,8,0,0,0-.43,1.33.22.22,0,0,1-.43-.09,8,8,0,0,1,.44-1.4,7.09,7.09,0,0,0,.42-1.32,5,5,0,0,0,0-1.33,5.59,5.59,0,0,1,0-1.84A14,14,0,0,0,39.11,32l-.32.22c-1,1.12-.19,2.89.58,4.65a14,14,0,0,1,1,2.74.22.22,0,0,1-.17.26.23.23,0,0,1-.26-.18,14.2,14.2,0,0,0-1-2.64c-.65-1.48-1.3-3-1-4.18l-.51.43c-.33.29-.63.58-.91.87h0a1.38,1.38,0,0,0-.2.33,1.8,1.8,0,0,0-.13.43,5.08,5.08,0,0,0,.46,2.65h0a6.9,6.9,0,0,0,1.38,1.75,5.54,5.54,0,0,1,1.54,2.12,5.14,5.14,0,0,1,.1,1.91,4.28,4.28,0,0,0,.12,1.76m-.57.94.28-.48a4,4,0,0,1-.27-2.25,4.88,4.88,0,0,0-.09-1.75,5.31,5.31,0,0,0-1.42-1.94,7.05,7.05,0,0,1-1.48-1.88h0a5.79,5.79,0,0,1-.52-2.68,7,7,0,0,0-1.36,2.62,4.52,4.52,0,0,0-.06,1.79s0,0,0,.08a5,5,0,0,0,.92,2c.14.19.29.37.45.55A11.31,11.31,0,0,0,37,43.38a7,7,0,0,1,2,2.15c.1.19.18.37.26.54m8.92-6.44c.52-.38,1.07-.73,1.61-1.08s1.13-.72,1.65-1.11a3.45,3.45,0,0,0,.77-.72,7.41,7.41,0,0,1,.92-1h0l0,0a11.3,11.3,0,0,1,2.26-1.46,10.59,10.59,0,0,0,2.43-1.62,5.55,5.55,0,0,0,.78-.95,3.67,3.67,0,0,0,.4-1.15l0,0a2.08,2.08,0,0,0-.51-.3,4.57,4.57,0,0,1-.63,1.57,7.94,7.94,0,0,1-1.19,1.38,9.61,9.61,0,0,1-2.29,1.48c-1.17.61-2.34,1.22-2.76,2.16a.23.23,0,0,1-.3.11.23.23,0,0,1-.11-.3c.49-1.07,1.73-1.72,3-2.36a9.61,9.61,0,0,0,2.19-1.41,7.84,7.84,0,0,0,1.13-1.3A4.2,4.2,0,0,0,58,29.93a1.29,1.29,0,0,0-.83-.53l-.11,0a1.22,1.22,0,0,1,0,.27,3.27,3.27,0,0,1-.25.72,6.89,6.89,0,0,1-1.53,2.05.22.22,0,0,1-.31,0,.23.23,0,0,1,0-.32,6.39,6.39,0,0,0,1.39-1.89,2.06,2.06,0,0,0,.21-.6c0-.1,0-.17,0-.19h0a3.34,3.34,0,0,0-.42.07.8.8,0,0,0,0,.27.79.79,0,0,1-.15.64c-2,2.23-4,4.44-5.83,6.71-.69.84-1.37,1.69-2,2.56m-2.61,3.56a7.81,7.81,0,0,1,1.1-.51.21.21,0,0,1-.11,0,.22.22,0,0,1-.07-.3,5.93,5.93,0,0,1,3.79-2.54,6,6,0,0,0,2.39-1.12,5.62,5.62,0,0,0,.85-1,5.41,5.41,0,0,1,1.16-1.25l.22-.17c.8-.61,1.64-1.25,1.75-2.24-.33.2-.68.39-1,.58A11,11,0,0,0,53.43,36h0a6.91,6.91,0,0,0-.88,1,3.6,3.6,0,0,1-.86.81c-.53.4-1.1.76-1.67,1.13a12.21,12.21,0,0,0-3.47,2.86l-1,1.4M41,50.7h0a4.44,4.44,0,0,0,1-.58s0,0,0,0a2.91,2.91,0,0,0,.46-.47h0c.34-.49.67-1,1-1.55a10.81,10.81,0,0,1,2.64-3.25,8.73,8.73,0,0,1,4-1.32,6.69,6.69,0,0,0,2.47-.66,1.78,1.78,0,0,0,.66-.86,4.33,4.33,0,0,0,.27-.88,11.35,11.35,0,0,1-3.87,1.25,10.55,10.55,0,0,0-4.79,1.84l-.08.06a5.11,5.11,0,0,0-.42.39A5.75,5.75,0,0,0,43,47a1.23,1.23,0,0,1-.19.44c-.22.38-.68,1.2-1.06,1.89l-.54,1h0c-.07.13-.14.26-.2.39Zm6.45,9.69a2.42,2.42,0,0,0,.5-.51c.05-.08.1-.15.13-.21a.77.77,0,0,0,.07-.17h0a1.76,1.76,0,0,0-.17-1c0-.09-.06-.17-.08-.25a4.1,4.1,0,0,1-.45,2.18m.66-11h0c.22-.07.44-.15.65-.24a4.07,4.07,0,0,0,2.71-2.78l0-.22a5.32,5.32,0,0,1-2.31.56,3.29,3.29,0,0,0-1.71.45,4,4,0,0,0-1.18,1.37A3.27,3.27,0,0,1,44.92,50a12.36,12.36,0,0,0,3-.54l.13,0h0Zm-5.5,1.07h-.37a5,5,0,0,1-.94.56c-.44,3.07.29,3.86.91,4.54h0a4.67,4.67,0,0,0,1.5,1l0,0,.5.22a5.42,5.42,0,0,1,2.38,1.56.83.83,0,0,0-.19-1.22,10.12,10.12,0,0,0-1.23-.9,6.2,6.2,0,0,1-2.76-2.81h0v0a3.15,3.15,0,0,1-.11-.44,3.69,3.69,0,0,1-.05-.49,4.79,4.79,0,0,1,.34-2m4.35-.3a12.83,12.83,0,0,1-2.3.27h0A7.62,7.62,0,0,0,44,51.6a2.52,2.52,0,0,0-.14,1.23,3.46,3.46,0,0,0,1.92,2.25,3.65,3.65,0,0,1,1.79,1.86,3.71,3.71,0,0,1,.12.41v0a4.24,4.24,0,0,1,.61-1.82c.43-.8.75-1.4-.73-2.63a8.13,8.13,0,0,1-.67-.61,1.83,1.83,0,0,1-.42-.69A1.66,1.66,0,0,1,47,50.18m1.86,3.27a13.53,13.53,0,0,0,1.82.65,17.75,17.75,0,0,0,2.1.44,27,27,0,0,0,9.07-.26l.71-.25h0a1,1,0,0,0,.21-.1,1.4,1.4,0,0,0,.18-.13,1.31,1.31,0,0,0,.4-.83v0h0a2.2,2.2,0,0,0-.58-1.24,1.29,1.29,0,0,1-.34-.62h0v-.23a.24.24,0,0,1,0-.08.87.87,0,0,1,.3-.43,2.79,2.79,0,0,1,.44-.29h0l0,0h0s.05-.05.05-.08h0s0-.06,0-.08a.31.31,0,0,0,0-.1c-.09-.39-.23-.4-.56-.34l-.28,0a.22.22,0,0,1-.25-.19.23.23,0,0,1,.18-.25l.35-.08c.13,0,.76-.36.8-.49h0c.09-.14,0-.26-.16-.38a1.15,1.15,0,0,1-.33-.65h0a.68.68,0,0,1,0-.2,1,1,0,0,1,.07-.18,1.29,1.29,0,0,1,.84-.53h0a4.83,4.83,0,0,0,.53-.16.93.93,0,0,0,.31-.21c.25-.43,0-.8-.31-1.12-.08-.1-.16-.19-.22-.28h0l-.36-.52c-1-1.41-2.4-3.38-2.54-5.12a13.5,13.5,0,0,0-1.88-5.26c-.26-.49-.52-1-.77-1.5-.15.18-.32.37-.52.58a6.3,6.3,0,0,1-1,.83A2.79,2.79,0,0,1,56,35.94a13.72,13.72,0,0,1-.59,2.61,5.14,5.14,0,0,1-1.37,2.18,6.49,6.49,0,0,1-.39,1.43,2.26,2.26,0,0,1-.73,1v0c0,.58,0,2-.93,2.67h0l0,0a3.68,3.68,0,0,1-.05.58,4.5,4.5,0,0,1-3,3.11l-.67.25h0l-.1,0a.94.94,0,0,0-.23.1,2.49,2.49,0,0,0-.3.19A1.44,1.44,0,0,0,47,51.44a1.33,1.33,0,0,0,.32.51,7.17,7.17,0,0,0,.63.57,5.53,5.53,0,0,1,.91.93m-.08,14h.36l.22,0a4.42,4.42,0,0,1,1.07.28h0c.56.22,1.12.46,1.67.7a16.32,16.32,0,0,0,4,1.36,18.71,18.71,0,0,0,3.31.24,5.27,5.27,0,0,0,2.59-.7,10.16,10.16,0,0,0-3.09-2.43l-.65-.39,0,0h0a1.2,1.2,0,0,1-.18-.2,3.16,3.16,0,0,1-.18-.27,6.67,6.67,0,0,1-.76-2.44h0c0-.33-.08-.68-.1-1s0-.72-.05-1.1a35.25,35.25,0,0,1,.27-5,.66.66,0,0,1,.41-.46q1.22-.55,2.43-1l.2-.08a27.41,27.41,0,0,1-7.52,0,17.11,17.11,0,0,1-2.15-.46,14.07,14.07,0,0,1-1.47-.49,2,2,0,0,1-.34,1.79,3.83,3.83,0,0,0-.55,1.63,2.53,2.53,0,0,0,.21,1,2.05,2.05,0,0,1,.18,1.31h0a1.18,1.18,0,0,1-.11.27,2.63,2.63,0,0,1-.16.26,2.09,2.09,0,0,1-1.1.82A3.37,3.37,0,0,0,47,62.11,3.43,3.43,0,0,0,47.88,64c.72.95,1.46,1.94.85,3.48m-1.41.18a5.18,5.18,0,0,0,.73-.09l.17,0c.68-1.44,0-2.38-.69-3.28a8.73,8.73,0,0,1-.63-.91,6.12,6.12,0,0,0,.44,1.74,2.64,2.64,0,0,1,0,2.57m-1.55-.35.48.16a5.11,5.11,0,0,0,.59.13,2.27,2.27,0,0,0,.08-2.35,6.68,6.68,0,0,1-.45-1.73A13.44,13.44,0,0,0,46.35,65a4.49,4.49,0,0,1-.28,1.82,1.33,1.33,0,0,1-.3.43m-2.38,1.66c.09-.77.7-1.12,1.31-1.46a4.41,4.41,0,0,0,.43-.25.23.23,0,0,1,.15-.11,1.16,1.16,0,0,0,.38-.45A4.3,4.3,0,0,0,45.91,65a10.52,10.52,0,0,1,1-4.42h0c0-.11.09-.22.14-.33a3.81,3.81,0,0,0,.17-3.16,3.33,3.33,0,0,0-1.61-1.62,3.8,3.8,0,0,1-2.11-2.54,2.72,2.72,0,0,1,.15-1.46,6.28,6.28,0,0,1,.47-1l-.51,0-.47.06a4.09,4.09,0,0,0-.41,2,2.84,2.84,0,0,0,0,.42,2.11,2.11,0,0,0,.09.38h0a5.89,5.89,0,0,0,2.59,2.59,10.55,10.55,0,0,1,1.29,1,1.27,1.27,0,0,1,0,2.08.22.22,0,0,1-.31,0,.14.14,0,0,1,0-.08,2.42,2.42,0,0,0-.88-.89,4.24,4.24,0,0,1,.89,2.53,5.71,5.71,0,0,1,0,.83,4.89,4.89,0,0,1-.15.78h0a6.46,6.46,0,0,1-3.28,4.29,2.13,2.13,0,0,0-.13.43,2.59,2.59,0,0,0,0,.48,3,3,0,0,0,.63,1.66M39.17,56.61l0-.08a4.84,4.84,0,0,0,.2-1.45v-.15a7.4,7.4,0,0,0-.08-.75,14.53,14.53,0,0,1-.43,1.76c-.11.4-.22.8-.31,1.2a.27.27,0,0,1,0,.12,4.14,4.14,0,0,0,.27,3,3.3,3.3,0,0,1,.1-2.88c.09-.23.18-.46.26-.72m1.12,6.58c1-1.11.5-1.78-.13-2.61A4.89,4.89,0,0,1,39,58.41c-.18.87,0,1.83,1.51,3.51a.24.24,0,0,1,0,.28.24.24,0,0,1-.31.07c-2.1-1.35-2.47-2.84-2.29-4.35-1.45,1.92-.26,3,.74,3.92a3.16,3.16,0,0,1,1.12,1.44h0a1.34,1.34,0,0,1,0,.35c.13-.15.27-.29.42-.44m.34.29-.27.27a2.68,2.68,0,0,0-.68,1.11l0,.07c0,.25-.11.52-.16.76a4.29,4.29,0,0,0,0,1.51c.11-.85.9-1.56,1.81-2.36,1.26-1.12,2.75-2.43,2.67-4.61,0-1.68-1-2.39-2-3.19a8.37,8.37,0,0,1-2.07-2v.08a2.47,2.47,0,0,0,1.51,2A2.68,2.68,0,0,1,43,59.42a4.75,4.75,0,0,1-2,3.7l-.38.36M39.58,56.8a3.64,3.64,0,0,0,.93,3.51,2.7,2.7,0,0,1,.83,1.87,3.71,3.71,0,0,0,1.22-2.76c0-1.08-.73-1.53-1.45-2a4,4,0,0,1-1.38-1.2c0,.19-.1.38-.15.56m3.54-13.42a1,1,0,0,0,.16-.32.45.45,0,0,0,0-.23.43.43,0,0,0-.17-.19.5.5,0,0,0-.23-.1.43.43,0,0,0-.22.06,1,1,0,0,0-.25.26Zm.1.08.6.42.07,0A.16.16,0,0,0,44,44a.17.17,0,0,0,.12-.08.59.59,0,0,0,.09-.24.38.38,0,0,0,0-.24.47.47,0,0,0-.17-.2.61.61,0,0,0-.28-.11.46.46,0,0,0-.26.07,1.1,1.1,0,0,0-.27.29M44,40.52l.75.55,0,0a.35.35,0,0,0,.07-.33.8.8,0,0,0-.25-.34l0,0,1,.7,0,.05a1.22,1.22,0,0,0-.31-.12.37.37,0,0,0-.22,0,.7.7,0,0,0-.19.17l.53.38c.1.08.16.12.19.12h.09a.33.33,0,0,0,.11-.1l.08-.11a.78.78,0,0,0,.18-.51.82.82,0,0,0-.2-.49l0,0,.53.51-1.16,1.6-.05,0,.05-.06a.29.29,0,0,0,.06-.15.15.15,0,0,0,0-.11,1.19,1.19,0,0,0-.17-.14l-1.21-.88a.75.75,0,0,0-.16-.1.14.14,0,0,0-.11,0,.4.4,0,0,0-.15.12l0,.06,0,0,1.12-1.55.55.4,0,0a.89.89,0,0,0-.37-.1.52.52,0,0,0-.27.11,1.49,1.49,0,0,0-.23.27Zm2.54-1.58.51.39.2.12a.22.22,0,0,0,.11,0,.46.46,0,0,0,.15-.16l0,0-.7.94,0,0a.49.49,0,0,0,.11-.19.2.2,0,0,0,0-.11s-.07-.08-.17-.15l-1.19-.89a.51.51,0,0,0-.2-.12.14.14,0,0,0-.11,0,.46.46,0,0,0-.15.16l-.05,0,.63-.85a2.81,2.81,0,0,1,.41-.45.69.69,0,0,1,.36-.13.6.6,0,0,1,.36.12A.54.54,0,0,1,47,38a.68.68,0,0,1-.07.35l.95,0a1.1,1.1,0,0,0,.24,0,.24.24,0,0,0,.15-.09l.05,0-.44.57-1.27,0Zm-.9-.67.8.6.06-.08a1,1,0,0,0,.17-.3.33.33,0,0,0,0-.24.53.53,0,0,0-.2-.23.44.44,0,0,0-.71.11ZM48,35l.49.38,0,0a.89.89,0,0,0-.31-.1.48.48,0,0,0-.23,0,.47.47,0,0,0-.16.16l-.11.13,1.39,1.09a.66.66,0,0,0,.19.12.18.18,0,0,0,.1,0,.35.35,0,0,0,.12-.1l.05-.06,0,0-.74.94,0,0,0-.06a.34.34,0,0,0,.07-.15.13.13,0,0,0,0-.1.58.58,0,0,0-.16-.15l-1.39-1.09-.1.14a.48.48,0,0,0-.13.32.71.71,0,0,0,.19.39l0,0-.48-.39Zm2.31-.22-.52.62.11.22a.48.48,0,0,0,.11.15.16.16,0,0,0,.16,0,.67.67,0,0,0,.17-.14l.05,0-.49.58,0,0a.34.34,0,0,0,0-.22,1.65,1.65,0,0,0-.14-.37l-.88-1.8,0,0,2,.57a1.15,1.15,0,0,0,.38.06.28.28,0,0,0,.15-.08l.05,0-.71.86-.05,0,0,0a.28.28,0,0,0,.09-.17s0,0,0-.08l-.06,0-.13,0Zm-.14,0-.82-.25.38.78Zm1.58-.7,0,0,0-.06a.37.37,0,0,0,.07-.14.14.14,0,0,0,0-.11.49.49,0,0,0-.15-.15l-1.15-1a1.12,1.12,0,0,0-.18-.13.22.22,0,0,0-.11,0,.35.35,0,0,0-.12.1l-.05.06,0,0,.66-.79a1.5,1.5,0,0,1,.51-.43.93.93,0,0,1,.61-.09,1.25,1.25,0,0,1,.58.28,1.14,1.14,0,0,1,.29.34.83.83,0,0,1,.13.37.88.88,0,0,1,0,.36,2.12,2.12,0,0,1-.15.38,2,2,0,0,1-.2.26ZM50.69,32l1.37,1.15.14.1h.07l.1-.09a.49.49,0,0,0,.13-.45A1.35,1.35,0,0,0,52,32a1.51,1.51,0,0,0-.63-.34.63.63,0,0,0-.39,0,1.2,1.2,0,0,0-.3.28m-9.08,14.5.63.51-1.11,1.7-.05,0,0-.07a.32.32,0,0,0,.06-.15.19.19,0,0,0,0-.1A.77.77,0,0,0,41,48.2l-1.26-.82a.85.85,0,0,0-.2-.11.2.2,0,0,0-.1,0,.29.29,0,0,0-.11.11l-.05.07,0,0,.67-1,0,0,0,.09a.24.24,0,0,0-.06.15.19.19,0,0,0,0,.1s.07.07.17.13l1.22.8a1.1,1.1,0,0,0,.2.11.19.19,0,0,0,.1,0,.69.69,0,0,0,.12-.16l.11-.16a.81.81,0,0,0,.11-.29.61.61,0,0,0-.05-.29,1.57,1.57,0,0,0-.26-.36Zm-4.3,3a.2.2,0,0,1,0-.11c.51-.95,1.05-1.89,1.62-2.84a6.23,6.23,0,0,0-.36-.82,6.79,6.79,0,0,0-1.85-2,10.58,10.58,0,0,1-1.37-1.26c-.17-.19-.33-.39-.47-.58a5.78,5.78,0,0,1-.84-1.61c-.83,3.16,1.5,5.4,2.62,6.48L37,47a.22.22,0,0,1-.31.31l-.28-.26a8.85,8.85,0,0,1-2.83-4.38A8.55,8.55,0,0,0,35,47.78,8.38,8.38,0,0,0,36,49a8.64,8.64,0,0,0,1,.85,1.46,1.46,0,0,1,.16-.19l.18-.15m1.39,1.32h0s0,0,0,0a.06.06,0,0,0,0,0,.62.62,0,0,0,0-.23h0a.77.77,0,0,0-.23-.55.73.73,0,0,0-.55-.23h0a.75.75,0,0,0-.55.23.81.81,0,0,0-.23.54h0a.67.67,0,0,0,.06.28.08.08,0,0,0,0,0,.38.38,0,0,0,.09.15,3,3,0,0,0,1.09-.06.54.54,0,0,0,.17-.07.15.15,0,0,0,.06,0M36,52.13,35.59,52h0a5.53,5.53,0,0,0-.81-.3c-.21,0-.34,0-.39,0a.11.11,0,0,0,0,.07.35.35,0,0,0,0,.13.87.87,0,0,0,.68.36h.34a1.5,1.5,0,0,0,.55-.15m2.12,2.73c.16,1.22-.58,2-1.32,2.74a4.24,4.24,0,0,0-1.16,1.61,7.88,7.88,0,0,0-.17,2.36,8.75,8.75,0,0,1-.18,2.56l.11-.11h0a.21.21,0,0,1,.28,0l1,.72a3.49,3.49,0,0,0-.19-2.28A3,3,0,0,1,36.23,61a4.32,4.32,0,0,1,.39-1.25h0l.12-.22a.75.75,0,0,0,.07-.12,4.18,4.18,0,0,1,1.32-2.34c.09-.41.21-.83.32-1.24a11,11,0,0,0,.47-2.15,2.5,2.5,0,0,1-.77,1.14l-.07,0m-1.59-.26h0a.11.11,0,0,1-.07-.08.15.15,0,0,1,.09-.21,4.66,4.66,0,0,0,1.4-.82,3.43,3.43,0,0,0,.86-1.12l-.06-.2,0-.16-.3,0a3.65,3.65,0,0,0-.46.07,4,4,0,0,0-1.6.69h0a4.78,4.78,0,0,0-.59.53h0s0,0,0,.08a.87.87,0,0,1,.17.4,1,1,0,0,1,0,.44.36.36,0,0,0,0,.11,4.29,4.29,0,0,0,.64.24m2.12-1.41a4.18,4.18,0,0,1-.5.53l-.18.14a1.28,1.28,0,0,1-.09.22,1.31,1.31,0,0,1-.39.43,1.05,1.05,0,0,1-.42.18,1.36,1.36,0,0,0,.69-.13l0,0a.94.94,0,0,0,.12-.09,2.28,2.28,0,0,0,.73-1.26m.59-.95a1,1,0,0,0,.2-.56.49.49,0,0,0,0-.17s0,0,0-.07L39,51.2l-.08,0a1.31,1.31,0,0,1-.27.12,3.73,3.73,0,0,1-1.42.06h0l-.16,0h0a4.57,4.57,0,0,1-1.57-.73,1.66,1.66,0,0,0-.78-.37.3.3,0,0,0-.19.1h0l-.12.15c0,.07-.09.14-.13.22-.21.38-.39.88-.23,1.08H34l0,0h0l0,0a.63.63,0,0,1,0-.19.5.5,0,0,1,.12-.28.74.74,0,0,1,.68-.13,4.43,4.43,0,0,1,.87.32h0l.63.26h0a1.8,1.8,0,0,0,.35.07,5.09,5.09,0,0,1,1.1-.37,4.46,4.46,0,0,1,.51-.07l.51,0h0a.23.23,0,0,1,.24.22.86.86,0,0,0,0,.28.6.6,0,0,0,.06.19m.63-.75a1.35,1.35,0,0,1-.5,1.26,6.57,6.57,0,0,0,2.85,3.94c1.13.87,2.14,1.63,2.2,3.53.08,2.38-1.5,3.77-2.82,5s-2.19,1.94-1.3,3.2a2.22,2.22,0,0,0,.41.19,1.07,1.07,0,0,1-.05-.47c.08-.92.81-1.35,1.73-1.9A6.33,6.33,0,0,0,45.78,62h0a5.4,5.4,0,0,0,.14-.72,6.52,6.52,0,0,0,0-.77A3.85,3.85,0,0,0,43.56,57a5.19,5.19,0,0,1-1.69-1.09h0c-.67-.73-1.45-1.58-1-4.65a9.58,9.58,0,0,1-1,.25m.54-.57c.14-.28.28-.55.43-.82h0l.54-1c.42-.75.93-1.67,1.13-2l.09-.26c.13-.36.27-.73.45-1.11l-.43.66,0,0,0-.07a.26.26,0,0,0,.06-.15.17.17,0,0,0,0-.1.57.57,0,0,0-.17-.13l-1.26-.83L41,45a.13.13,0,0,0-.1,0,.29.29,0,0,0-.11.11l0,.06-.06,0,.66-1,0,0,0,.07a.24.24,0,0,0-.06.15.19.19,0,0,0,0,.1.57.57,0,0,0,.17.13l1.26.82a.87.87,0,0,0,.19.11.22.22,0,0,0,.11,0,.29.29,0,0,0,.11-.11l0-.07,0,0a5.65,5.65,0,0,1,.42-.62l0,0a.45.45,0,0,0,.1-.2.2.2,0,0,0,0-.11.83.83,0,0,0-.18-.15l-1.21-.86a.52.52,0,0,0-.21-.11.15.15,0,0,0-.11,0,.6.6,0,0,0-.14.16l-.05,0,.63-.89a1.47,1.47,0,0,1,.38-.42.62.62,0,0,1,.32-.09.48.48,0,0,1,.29.1.44.44,0,0,1,.18.26,1,1,0,0,1-.08.47,1.17,1.17,0,0,1,.41-.27.53.53,0,0,1,.44.07.56.56,0,0,1,.23.42,1.2,1.2,0,0,1-.26.72l-.51.71.23-.24c.16-.16.32-.3.49-.44.53-.79,1.07-1.56,1.62-2.32h0c1.18-1.64,2.42-3.22,3.69-4.76,1.88-2.29,3.83-4.5,5.84-6.73,0,0,0-.19,0-.32a1.53,1.53,0,0,1,0-.37l-2.21-.85c-.8.79-1.61,1.61-2.41,2.47s-1.65,1.81-2.46,2.76A94.17,94.17,0,0,0,37.89,49.31H38a1.23,1.23,0,0,1,1.23,1.23h0a1.35,1.35,0,0,1,0,.29l.39.22a3.6,3.6,0,0,0,.8-.12M71.12,71.66l-.79.79-.64-1.36Zm.58,1.94-.07-.07c-.29.29-.51.29-.65.14a1.08,1.08,0,0,1-.22-.29l-.28-.64.86-.94.86.29a1.27,1.27,0,0,0,.29.22c.07.07.07.21-.07.36l-.22.21.15.07,1.72-1.72-.14-.14c-.15.14-.22.21-.51.07L69,69.36l-.29.36,1.8,4c.29.5.29.65.07.86l.14.08Zm-10.57,6c.22.51.15.65-.28.86l.07.15,2.44-1.22c1.22-.58,1.37-1.3,1-1.94a1.14,1.14,0,0,0-1.51-.65,1.09,1.09,0,0,0,.36-1.36c-.29-.65-.94-.94-2-.36l-2.45,1.15.07.14c.44-.22.65-.14.87.29Zm-.35-4.09a.87.87,0,0,1,1.14.57.82.82,0,0,1-.28,1.22Zm1,2a.92.92,0,0,1,1.29.5c.36.65.29,1.08-.07,1.3-.21.07-.36.07-.57-.36ZM43.31,80.07a2.63,2.63,0,0,0,5.25.35c.14-1.65-.94-2.51-2.45-2.65s-2.73.64-2.8,2.3m1.51.14c.07-1.58.57-2.16,1.29-2.16s1.08.72.94,2.3-.58,2.16-1.3,2.16-1.07-.72-.93-2.3M30.59,74.32a2.33,2.33,0,0,0,.86,3.52A2.4,2.4,0,0,0,35,77.19a2.43,2.43,0,0,0-.86-3.52,2.38,2.38,0,0,0-3.59.65m1.22.79c.94-1.29,1.65-1.58,2.16-1.22s.64,1.15-.22,2.51S32.17,78,31.6,77.62s-.65-1.15.21-2.51m37.59.57-.07-.14c-.43.29-.65.29-.94-.14l-1.94-2.66c-.29-.43-.21-.58.15-.86l-.08-.15L64.3,73.38l.07.15c.36-.29.57-.36.93.07l1.94,2.66c.29.43.22.64-.21.93l.14.07ZM54,82.36l1-4.16.58,3.09c.07.5-.07.64-.58.72l.08.14,2.73-.43-.08-.15c-.43.08-.64,0-.71-.5l-.58-3.23c-.07-.58.07-.72.58-.79V76.9l-2.09.36-.79,3.16-1.72-2.73-2.09.36.07.15c.43-.07.65,0,.72.5l.58,3.23c.07.51-.07.65-.58.72v.15l1.66-.22v-.22c-.51.15-.72,0-.8-.5l-.57-3.23h.07l2.3,3.73Zm-14-.71L40.79,80l-.07-.07c-.36.58-.93,1.29-1.87,1-.36-.15-.43-.29-.36-.58l1.15-3.16c.22-.5.44-.5.87-.36l.07-.14-2.66-.94v.15c.43.14.57.29.36.79L37.2,79.78c-.21.5-.43.5-.86.36l-.07.14ZM28,73.74a2,2,0,0,1-1.65-.28c-.65-.65-.22-1.51.65-2.37s1.65-1.3,2.3-.72a1.23,1.23,0,0,1,.07,1.72l.14.14,1.08-1.14L30.44,71c-.14.08-.28.15-.35.08a4.94,4.94,0,0,0-.79-1.23,2.3,2.3,0,0,0-3.45.15,2.35,2.35,0,0,0-.08,3.45,2.3,2.3,0,0,0,1.94.64ZM75.29,63a1.31,1.31,0,0,0,1.58-.65,1.24,1.24,0,0,0-.64-1.58A1.21,1.21,0,0,0,75.29,63M72.63,33.73c-.43.29-.64.21-.93-.22l-.07.15L73.06,36c.72,1.14,1.44,1.22,2.09.79a1.17,1.17,0,0,0,.43-1.59,1.12,1.12,0,0,0,1.37.29c.64-.43.86-1.08.21-2.08l-1.44-2.3-.14.07c.29.36.29.58-.14.86Zm4-.72c.21.5.07.86-.43,1.22s-.94.22-1.22-.21Zm-1.87,1.15a1,1,0,0,1-.43,1.36c-.58.36-1,.44-1.22.08s-.15-.36.28-.58ZM78.6,50.32V49.17l1.44.58Zm-1.8-1H77c0-.43.14-.58.36-.58a1,1,0,0,1,.35.15l.72.21v1.3l-.86.28a.43.43,0,0,1-.29.07c-.21,0-.28-.07-.28-.28v-.29H76.8v2.44H77c0-.21.07-.29.36-.36l4.38-1.72v-.43l-4.1-1.65c-.5-.15-.57-.29-.64-.58H76.8Zm-6.68-24c.5.43.36.86,0,1.3s-.79.71-1.3.35Zm-2.3,4,.07-.15c-.43-.29-.5-.5-.14-.93l.86-1.08.43.29c.86.72,1.72.72,2.23.14s.36-1.44-.65-2.23l-2-1.58-.07.08c.36.28.43.5.14.93L66.6,27.33c-.36.44-.58.44-.94.08l-.07.14ZM60,19.58c.8.28,1,.64.65,1.43s-.65.79-1.36.5ZM61.35,25l.07-.14a.7.7,0,0,1-.43-.57l-.29-2c.65,0,1.08-.14,1.3-.79s-.08-1.43-1.3-1.86l-2.58-1v.14c.43.15.5.29.36.79l-1.23,3.09c-.14.51-.36.51-.79.36l-.07.15,2.59,1,.07-.14c-.43-.22-.57-.36-.36-.86l.5-1.3h.15l.36,2.52ZM50.93,20.44l-1.15-.07L50.43,19Zm-1.15,1.72V22c-.43,0-.5-.15-.5-.36a1.22,1.22,0,0,1,.14-.36l.29-.65,1.29.07.22.87a.42.42,0,0,1,.07.28c0,.15-.15.29-.29.22h-.29v.14l2.45.22v-.22c-.22,0-.29-.07-.36-.36l-1.44-4.45h-.5l-1.8,3.88c-.29.5-.36.65-.65.65v.14ZM31,23c1-.64,1.8-.07,2.37.87.79,1.15.86,2.08.29,2.44-.22.14-.36.14-.58-.22ZM31.88,27c.29.44.15.65-.21.87l.07.14,2.15-1.44a2.24,2.24,0,0,0,.87-3.37,2.31,2.31,0,0,0-3.52-.65l-2.16,1.37.07.14c.43-.29.65-.29.94.14Zm40.39-.14-.14.07c.29.36.36.58-.07.94l-1.94,1.65a1.55,1.55,0,0,0,0,2.44c.72.94,1.58,1.15,2.44.43l1.94-1.58c.43-.36.65-.28.94.07l.14-.14L74.5,29.56l-.07.07a.55.55,0,0,1-.14.87l-1.94,1.65a1.17,1.17,0,0,1-1.73-.07c-.29-.36-.36-.79.22-1.3L73,29c.43-.36.65-.29.94.07l.14-.07Zm-7,.43.94-1.08-.15-.07c-.79.72-1.29.51-1.65.29l-.57-.29c-.22-.14-.22-.28-.08-.5l.87-1.44c.57.36.64.65.28,1.37l.15.07,1.22-2-.15-.07c-.5.64-.79.79-1.36.43l1-1.65.64.35A1.07,1.07,0,0,1,67,24.17l.07.08.72-1.15-3.6-2.16-.07.14c.36.22.5.43.22.87l-1.73,2.8c-.29.43-.5.43-.86.21l-.07.15ZM47.91,22.09l-.07-1.87h-.15c-.07.65-.21,1.58-1.22,1.73-.43,0-.5,0-.5-.36l-.36-3.38c-.07-.5.07-.65.57-.65v-.14l-2.8.29v.14c.51-.07.72,0,.72.58l.36,3.23c.07.5-.07.65-.57.72v.14ZM40,23.53l-.28-1.44-.22.07c.22,1.08-.29,1.37-.72,1.58l-.57.22c-.22.07-.36.07-.43-.22l-.65-1.51c.65-.28.86-.14,1.29.58l.15-.07-.94-2.16-.14.07c.21.72.14,1-.5,1.3l-.72-1.8.72-.29a1,1,0,0,1,1.43.51l.15-.08-.51-1.22-3.88,1.65.07.15c.44-.22.65-.15.87.36l1.22,2.94c.21.51.07.72-.36.87l.07.14ZM20.31,51.9c.5,0,.58.15.65.65h.14L21,49.75c0-1.29-.58-1.73-1.37-1.73s-1.07.44-1.22,1.15c-.14-.5-.43-.93-1-.93-.79,0-1.3.5-1.3,1.65l.07,2.73h.15c0-.5.14-.64.65-.72Zm-3.88-1.43c.07-.58.43-.79,1-.79s.86.21.93.79Zm2.23,0a.94.94,0,0,1,1-1c.72,0,1.15.22,1.15.58s-.07.36-.57.36Zm1-5.25-.21,1.08-1.29-.79Zm1.66,1.22h-.15c-.07.44-.21.51-.43.51s-.21-.07-.36-.15l-.64-.36L20,45.15l.86-.21h.29c.22,0,.22.14.22.28l-.07.36h.21l.36-2.44h-.14c-.08.21-.15.29-.43.36l-4.6,1-.08.44,3.81,2.22c.43.29.58.36.51.65l.21.07Zm1-4.88-.07-.07c-.21.43-.36.57-.86.36l-2.95-1.08,4.82-1.65.14-.43-3.81-1.44c-.5-.15-.57-.36-.43-.79l-.07-.07L18.51,38h.15c.14-.43.29-.58.79-.36l2.08.72-3.66,1.22-.65,1.87.14.07c.15-.36.22-.43.58-.51l3.31,1.23c.5.14.57.35.43.79l.14.07Zm1.37-8.62a2.38,2.38,0,0,0,3.59-.58c.94-1.22,1-2.58-.36-3.59a2.32,2.32,0,0,0-3.59.5,2.45,2.45,0,0,0,.36,3.67m.93-1.22c-1.22-1-1.43-1.73-1-2.23s1.15-.58,2.44.43,1.44,1.72,1,2.23-1.15.57-2.45-.43m-.14,2.15a1.89,1.89,0,0,1,.07,1.65c-.43.79-1.36.65-2.44,0s-1.66-1.29-1.22-2.08a1.34,1.34,0,0,1,1.65-.5l.07-.15-1.29-.71-.15.07c.15.14.29.21.22.36s-.65.43-1,1.07a2.17,2.17,0,0,0,1,3.24,2.19,2.19,0,0,0,3.31-.72,2.54,2.54,0,0,0,.21-2Zm53.69,14c-.36-.21-1-.65-1.08-1.29-.14-.86.72-1.3,1.94-1.44s2.16,0,2.23.93a1.31,1.31,0,0,1-1,1.37v.14l1.51-.14v-.14c-.21-.08-.29-.08-.29-.22s.22-.72.15-1.44a2.27,2.27,0,0,0-2.81-2,2.3,2.3,0,0,0-2.22,2.59A2.57,2.57,0,0,0,77.66,48ZM76.3,44.14l.14-.07c-.14-.43-.07-.64.43-.79L80,42.42c.5-.14.64,0,.79.5l.14-.07-.72-2.66h-.14c.14.51.07.72-.43.79l-3.17.87c-.5.14-.71,0-.79-.43h-.14ZM75.44,41l1.72-.57v-.14a1.65,1.65,0,0,1-2-.65c-.14-.36-.14-.5.21-.65l3.1-1.29c.5-.22.64-.07.86.36l.14-.07-1.15-2.52h-.14c.21.43.21.65-.29.86l-3,1.3c-.5.21-.65.07-.86-.36l-.14.07ZM76,29.09,74.35,29l-.18-.24,1.13-.48Zm-27-5.8h0A26.72,26.72,0,0,0,22.16,50h0A26.77,26.77,0,0,0,48.92,76.78h0A26.72,26.72,0,0,0,75.67,50h0A26.67,26.67,0,0,0,48.92,23.29m0-.39h0A27.06,27.06,0,0,1,76.07,50h0A27.13,27.13,0,0,1,48.92,77.18h0A27.16,27.16,0,0,1,21.77,50h0A27.09,27.09,0,0,1,48.92,22.9Zm0-7.91h0A35,35,0,0,1,84,50h0a35,35,0,0,1-35,35h0a35,35,0,0,1-35-35h0a35,35,0,0,1,35-35m0,.4h0A34.62,34.62,0,0,0,14.33,50h0A34.62,34.62,0,0,0,48.92,84.61h0A34.62,34.62,0,0,0,83.57,50h0A34.64,34.64,0,0,0,48.92,15.39ZM21.68,60.74A1.16,1.16,0,0,0,21,62.32a1.23,1.23,0,1,0,.65-1.58M63.42,50.41a3.34,3.34,0,0,0-.42.28.46.46,0,0,0-.16.21v.19h0a2.14,2.14,0,0,0,.24.35A2.54,2.54,0,0,1,63.75,53v0a1.72,1.72,0,0,1-.54,1.13,2.23,2.23,0,0,1-.24.19,1.73,1.73,0,0,1-.31.14c-.85.29-1.67.59-2.48.91s-1.61.67-2.42,1h0a.24.24,0,0,0-.13.11h0a34.2,34.2,0,0,0-.27,4.89c0,.36,0,.72,0,1.08s0,.68.1,1h0a6.27,6.27,0,0,0,.7,2.27,1.53,1.53,0,0,0,.15.23l.12.13.63.38a9.71,9.71,0,0,1,3.35,2.75h0a.22.22,0,0,1-.06.3,5.41,5.41,0,0,1-3,.9A18.54,18.54,0,0,1,56,70.24a16.62,16.62,0,0,1-4.11-1.39c-.56-.24-1.11-.49-1.66-.7h0a4.23,4.23,0,0,0-1-.25l-.2,0h-.2a3.75,3.75,0,0,0-.45,0h0l-.27,0a3.84,3.84,0,0,1-1,.09h0l-.21,0h0a6.33,6.33,0,0,1-.78-.17,7.12,7.12,0,0,1-.74-.27,4.39,4.39,0,0,1-.47.27c-.6.34-1.22.69-1.06,1.63a.22.22,0,0,1-.05.2.22.22,0,0,1-.32,0,3.6,3.6,0,0,1-1.16-2.41,2.93,2.93,0,0,1,0-.59h0c-.71.43-1.24.8-1.3,1.43a.61.61,0,0,0,0,.33.79.79,0,0,0,.24.3h0l0,0h0v0h0a.28.28,0,0,1,0,.09h0v0h0l0,.06H41.3a.28.28,0,0,1-.13,0c-2.35-.42-2.38-2-2.1-3.54,0-.28.1-.53.16-.77a4.28,4.28,0,0,0,.17-1.46h0a3.1,3.1,0,0,0-1-1.21,4.85,4.85,0,0,1-1.52-2,4.25,4.25,0,0,0-.22.83,2.55,2.55,0,0,0,.22,1.24A3.92,3.92,0,0,1,37,65.15a.22.22,0,0,1-.28.14l-.06,0-1.13-.79-.8.77a.23.23,0,0,1-.32,0,.21.21,0,0,1,0-.28A5.68,5.68,0,0,0,35,61.58a7.66,7.66,0,0,1,.19-2.5,4.57,4.57,0,0,1,1.26-1.79,3.05,3.05,0,0,0,1.21-2.23,3,3,0,0,1-2.06-.32h0l-.07-.05a.49.49,0,0,1-.07-.55.83.83,0,0,0,0-.27.55.55,0,0,0-.1-.22c-.14-.22-.25-.39,0-.64l.1-.1a3.35,3.35,0,0,1-1.28-.31,3.53,3.53,0,0,1-.32-.21,1.55,1.55,0,0,1-.26-.25h0c-.29-.37-.09-1.07.19-1.58a1.53,1.53,0,0,1,.16-.25,1.15,1.15,0,0,1,.15-.2h0a.69.69,0,0,1,.75-.24,3.34,3.34,0,0,1,.9.46,5.88,5.88,0,0,0,1,.54,1.2,1.2,0,0,1,0-.33h0a1.07,1.07,0,0,1,0-.25,7.87,7.87,0,0,1-1.13-1,9.23,9.23,0,0,1-1-1.28,8.66,8.66,0,0,1-1-8h0c.06-.17.14-.34.22-.51A4.72,4.72,0,0,1,34,37.61a8.38,8.38,0,0,1,2.26-3.73h0c.29-.3.6-.59.94-.89.5-.44,1.06-.89,1.67-1.34A15.19,15.19,0,0,1,42,29.89h0a18.79,18.79,0,0,1,2.23-.74h0c.37-.09.73-.18,1.11-.25s.92-.17,1.38-.24.94-.11,1.41-.15h0l.58-.06.07,0h0l.5-.08c.26,0,.52-.1.79-.13h.1a8.09,8.09,0,0,1,2.72.29l.37-.37h0a.23.23,0,0,1,.24-.05l2.5,1A3,3,0,0,1,57.29,29a1.78,1.78,0,0,1,1.13.73,2.88,2.88,0,0,1,.84.46.91.91,0,0,1,.13.16.37.37,0,0,1,.06.25h0A3.84,3.84,0,0,1,59,31.89l0,.05c.28.58.58,1.14.87,1.7a13.73,13.73,0,0,1,1.93,5.44c.13,1.62,1.49,3.53,2.46,4.89.13.18.25.35.36.52h0l.2.26c.36.44.76.94.35,1.63l0,0a1.21,1.21,0,0,1-.49.36A4.14,4.14,0,0,1,64,47h0a.85.85,0,0,0-.55.32l0,.07v.06h0a.75.75,0,0,0,.22.41.73.73,0,0,1,.25.78h0a.85.85,0,0,1-.35.36l-.19.15a1.13,1.13,0,0,1,.3.56,1,1,0,0,1,0,.17,1.09,1.09,0,0,1,0,.18.56.56,0,0,1-.2.35Z"/><path class="cls-2" d="M48.63,84.19a.36.36,0,0,1-.36-.36.35.35,0,0,1,.36-.35.36.36,0,1,1,0,.71Zm.84-.36a.36.36,0,1,1,.36.35h0a.35.35,0,0,1-.35-.35m-2,.33a.36.36,0,0,1,0-.72.37.37,0,0,1,.35.38.36.36,0,0,1-.36.34Zm3.24-.37a.34.34,0,0,1,.34-.37.36.36,0,1,1,0,.71h0a.36.36,0,0,1-.36-.34m-4.44.3a.36.36,0,0,1,.05-.72.35.35,0,0,1,.33.38.36.36,0,0,1-.35.34h0m5.63-.38a.36.36,0,0,1,.72-.07.38.38,0,0,1-.33.4h0a.37.37,0,0,1-.36-.33M45,84a.36.36,0,0,1-.32-.4.36.36,0,1,1,.36.4h0m8-.38a.36.36,0,1,1,.71-.09.36.36,0,0,1-.31.4h0a.36.36,0,0,1-.35-.31m-9.22.22h0a.35.35,0,0,1-.3-.41.36.36,0,1,1,.71.11.35.35,0,0,1-.35.3h-.06m10.4-.38a.35.35,0,0,1,.3-.41.35.35,0,0,1,.41.29.35.35,0,0,1-.3.41h-.05a.37.37,0,0,1-.36-.3m-11.59.18a.36.36,0,1,1,.13-.7.35.35,0,0,1,.29.41.35.35,0,0,1-.35.3h-.07m12.77-.39a.35.35,0,0,1,.28-.42.36.36,0,1,1,.14.7h-.07a.35.35,0,0,1-.35-.29m-13.95.15a.36.36,0,0,1-.27-.43.34.34,0,0,1,.42-.27.35.35,0,0,1,.28.42.37.37,0,0,1-.35.29h-.08M56.57,83a.35.35,0,1,1,.43.27h-.09a.35.35,0,0,1-.34-.28m-16.29.11a.36.36,0,1,1,.43-.25.34.34,0,0,1-.34.26h-.09m17.45-.39a.35.35,0,1,1,.68-.2.36.36,0,0,1-.24.45h-.1a.34.34,0,0,1-.34-.26m-18.62.07h0a.37.37,0,0,1-.24-.45.36.36,0,1,1,.35.46h-.11m19.76-.4a.36.36,0,0,1,.24-.45.35.35,0,0,1,.45.23.36.36,0,0,1-.24.45l-.11,0a.36.36,0,0,1-.34-.25M38,82.39a.36.36,0,0,1-.22-.46.35.35,0,0,1,.45-.22.35.35,0,0,1,.22.45.35.35,0,0,1-.34.25l-.11,0M60,82a.36.36,0,0,1,.21-.46.35.35,0,0,1,.46.22.36.36,0,0,1-.21.46l-.12,0A.37.37,0,0,1,60,82M36.82,82a.36.36,0,1,1,.26-.67.37.37,0,0,1,.21.46A.38.38,0,0,1,37,82l-.13,0m24.31-.4a.37.37,0,0,1,.2-.47.37.37,0,0,1,.47.2.37.37,0,0,1-.2.47.34.34,0,0,1-.14,0,.36.36,0,0,1-.33-.22m-25.43,0a.36.36,0,0,1-.19-.47.35.35,0,0,1,.47-.19h0a.36.36,0,0,1,.19.47.37.37,0,0,1-.33.22.32.32,0,0,1-.14,0m26.53-.4a.35.35,0,0,1,.19-.47.36.36,0,1,1,.29.65.28.28,0,0,1-.15,0,.36.36,0,0,1-.33-.22M34.59,81h0a.36.36,0,0,1,.3-.65.36.36,0,0,1,.18.48.35.35,0,0,1-.33.2.4.4,0,0,1-.15,0m28.73-.4a.36.36,0,0,1,.17-.48.36.36,0,1,1,.31.65.32.32,0,0,1-.16,0,.36.36,0,0,1-.32-.21M33.5,80.51a.36.36,0,0,1-.15-.48.36.36,0,0,1,.64.32.36.36,0,0,1-.32.2.35.35,0,0,1-.17,0m30.89-.39a.35.35,0,0,1,.15-.49.36.36,0,0,1,.48.15.36.36,0,0,1-.15.49.32.32,0,0,1-.16,0,.36.36,0,0,1-.32-.19M32.44,80h0a.35.35,0,0,1-.14-.49.34.34,0,0,1,.48-.14.35.35,0,0,1,.14.49.35.35,0,0,1-.31.18.33.33,0,0,1-.17,0m33-.39a.36.36,0,1,1,.62-.36.36.36,0,0,1-.13.49.39.39,0,0,1-.18,0,.36.36,0,0,1-.31-.17m-34-.22a.35.35,0,0,1-.12-.49.36.36,0,1,1,.3.54.31.31,0,0,1-.18,0M66.47,79a.36.36,0,0,1,.11-.49h0a.37.37,0,0,1,.5.12.36.36,0,0,1-.12.49.32.32,0,0,1-.19.05.35.35,0,0,1-.3-.17M30.36,78.7a.35.35,0,0,1-.1-.49.36.36,0,1,1,.6.39.37.37,0,0,1-.3.16.36.36,0,0,1-.2-.06m37.12-.38a.36.36,0,0,1,.1-.5.35.35,0,0,1,.49.1.36.36,0,0,1-.1.5.35.35,0,0,1-.19.06.37.37,0,0,1-.3-.16M29.36,78a.36.36,0,0,1,.41-.59.35.35,0,0,1,.09.5.35.35,0,0,1-.29.15.39.39,0,0,1-.21-.06m39.1-.38a.36.36,0,0,1,.08-.5.36.36,0,0,1,.43.58h0a.36.36,0,0,1-.22.07.38.38,0,0,1-.29-.15m-40.07-.33h0a.36.36,0,1,1,.5-.07.37.37,0,0,1-.29.14.33.33,0,0,1-.21-.07m41-.38a.36.36,0,1,1,.51.06.4.4,0,0,1-.22.08.37.37,0,0,1-.29-.14m-42-.36a.36.36,0,1,1,.45-.56.36.36,0,0,1-.23.63.34.34,0,0,1-.22-.07m42.92-.38a.34.34,0,0,1,0-.5.35.35,0,0,1,.5,0,.36.36,0,0,1,0,.51.4.4,0,0,1-.23.08.34.34,0,0,1-.28-.13m-43.85-.4a.36.36,0,0,1,.47-.54.36.36,0,0,1,0,.51.36.36,0,0,1-.51,0m44.76-.37a.36.36,0,0,1,0-.51h0a.36.36,0,0,1,.48.54.38.38,0,0,1-.24.09.36.36,0,0,1-.27-.12M25.61,75h0a.36.36,0,0,1,.5-.52.36.36,0,0,1-.5.52m46.55-.36a.36.36,0,1,1,.51-.5.35.35,0,0,1,0,.51.39.39,0,0,1-.25.1.34.34,0,0,1-.25-.11m-47.41-.48a.36.36,0,0,1,.51-.51.38.38,0,0,1,0,.51.4.4,0,0,1-.26.11.36.36,0,0,1-.25-.11M73,73.79a.36.36,0,1,1,.5-.51.37.37,0,0,1,0,.51.39.39,0,0,1-.26.1.35.35,0,0,1-.25-.1m-49.1-.51a.34.34,0,0,1,0-.5.35.35,0,0,1,.51,0,.36.36,0,0,1,0,.5.39.39,0,0,1-.25.1.35.35,0,0,1-.26-.12m49.92-.35a.36.36,0,0,1,0-.51.36.36,0,0,1,.53.48.36.36,0,0,1-.27.12.38.38,0,0,1-.24-.09M23.1,72.39a.37.37,0,0,1,.55-.48.36.36,0,0,1,0,.51.36.36,0,0,1-.24.09.37.37,0,0,1-.27-.12M74.63,72a.37.37,0,0,1,0-.51.36.36,0,0,1,.51,0,.35.35,0,0,1,0,.5.34.34,0,0,1-.27.13.38.38,0,0,1-.23-.08m-52.3-.58a.36.36,0,0,1,.56-.45.37.37,0,0,1-.05.51.39.39,0,0,1-.23.07.34.34,0,0,1-.28-.13m53.06-.34a.37.37,0,0,1-.06-.51.36.36,0,1,1,.56.45.37.37,0,0,1-.5.06m-53.8-.61a.36.36,0,1,1,.5.07.33.33,0,0,1-.21.07.37.37,0,0,1-.29-.14m54.53-.34a.35.35,0,1,1,.21.07.33.33,0,0,1-.21-.07m-55.24-.64h0a.36.36,0,1,1,.59-.41.36.36,0,0,1-.09.5.31.31,0,0,1-.2.07.37.37,0,0,1-.3-.16m55.94-.33a.36.36,0,0,1-.1-.5.36.36,0,0,1,.5-.09.35.35,0,0,1,.09.49.34.34,0,0,1-.29.16.36.36,0,0,1-.2-.06m-56.61-.67a.35.35,0,0,1,.11-.49.35.35,0,0,1,.49.1.37.37,0,0,1-.1.5.36.36,0,0,1-.2.06.36.36,0,0,1-.3-.17m57.27-.32a.37.37,0,0,1-.12-.5.36.36,0,0,1,.5-.11.35.35,0,0,1,.11.49.35.35,0,0,1-.3.17.41.41,0,0,1-.19-.05m-57.91-.7h0a.36.36,0,1,1,.5.12.32.32,0,0,1-.19.05.37.37,0,0,1-.31-.17m58.53-.32a.36.36,0,0,1,.36-.63.35.35,0,0,1,.13.49.33.33,0,0,1-.31.18.39.39,0,0,1-.18,0M19,66.46h0a.35.35,0,0,1,.14-.49.34.34,0,0,1,.48.14.35.35,0,0,1-.14.49.33.33,0,0,1-.17,0,.34.34,0,0,1-.31-.19m59.71-.31a.37.37,0,0,1-.15-.49.36.36,0,0,1,.64.34.36.36,0,0,1-.32.19.59.59,0,0,1-.17,0M18.41,65.4a.36.36,0,0,1,.16-.48.37.37,0,0,1,.49.16.37.37,0,0,1-.16.48.32.32,0,0,1-.16,0,.36.36,0,0,1-.33-.2m60.84-.31a.37.37,0,0,1-.17-.49.36.36,0,0,1,.48-.16.36.36,0,0,1-.16.68.4.4,0,0,1-.15,0m-61.36-.77h0a.37.37,0,0,1,.18-.48.35.35,0,0,1,.47.18.35.35,0,0,1-.17.47.42.42,0,0,1-.15,0,.36.36,0,0,1-.33-.21M79.76,64a.37.37,0,0,1-.18-.48h0a.36.36,0,0,1,.47-.18.35.35,0,0,1-.14.68.39.39,0,0,1-.15,0m-62.36-.8a.36.36,0,1,1,.67-.27.37.37,0,0,1-.19.47l-.14,0a.37.37,0,0,1-.34-.22m62.84-.3a.36.36,0,0,1-.2-.47.36.36,0,1,1,.67.27.37.37,0,0,1-.34.22l-.13,0M17,62.09h0a.36.36,0,1,1,.46.21.28.28,0,0,1-.13,0,.35.35,0,0,1-.33-.24m63.72-.3a.35.35,0,0,1-.22-.46h0a.36.36,0,0,1,.46-.21.37.37,0,0,1,.22.46.38.38,0,0,1-.34.23.25.25,0,0,1-.12,0M16.55,61a.37.37,0,0,1,.23-.46.36.36,0,0,1,.23.68l-.12,0a.35.35,0,0,1-.34-.24m64.52-.3a.36.36,0,0,1,.22-.68.36.36,0,0,1,.24.45.38.38,0,0,1-.35.25.23.23,0,0,1-.11,0m-64.88-.85a.36.36,0,0,1,.24-.45.35.35,0,0,1,.44.24h0a.36.36,0,0,1-.24.45h-.1a.35.35,0,0,1-.34-.25m65.24-.29a.36.36,0,1,1,.19-.69.35.35,0,0,1,.25.45.36.36,0,0,1-.34.26l-.1,0m-65.57-.87a.36.36,0,1,1,.44.25h-.09a.35.35,0,0,1-.35-.26m65.88-.28a.35.35,0,0,1-.26-.43.36.36,0,0,1,.43-.27.37.37,0,0,1,.27.44h0a.36.36,0,0,1-.35.27h-.09m-66.16-.9h0a.36.36,0,1,1,.7-.15.35.35,0,0,1-.27.42h-.08a.35.35,0,0,1-.35-.28M82,57.21a.37.37,0,0,1-.28-.43.36.36,0,1,1,.35.44H82m-66.68-.92h0a.36.36,0,0,1,.28-.42.36.36,0,1,1,.13.71h-.06a.35.35,0,0,1-.35-.29M82.25,56a.36.36,0,0,1,.12-.71.35.35,0,0,1,.29.41.35.35,0,0,1-.35.3h-.06M15.14,55.1a.35.35,0,0,1,.3-.41.37.37,0,0,1,.41.3.36.36,0,0,1-.3.41h-.06a.36.36,0,0,1-.35-.31m67.3-.24a.37.37,0,0,1-.31-.4.36.36,0,0,1,.41-.31.36.36,0,0,1-.05.71h0M15,53.9h0a.36.36,0,0,1,.71-.08h0a.35.35,0,0,1-.31.4h-.05A.36.36,0,0,1,15,53.9m67.61-.23a.36.36,0,1,1,.39-.32.36.36,0,0,1-.35.33h0m-67.73-1h0a.36.36,0,0,1,.72-.05.34.34,0,0,1-.33.38h0a.37.37,0,0,1-.36-.33m67.84-.21a.36.36,0,0,1,0-.72.36.36,0,0,1,0,.72Zm-67.91-1h0a.37.37,0,0,1,.34-.38.37.37,0,0,1,.38.35.36.36,0,0,1-.35.37h0a.36.36,0,0,1-.36-.34m68-.21a.36.36,0,0,1-.35-.37.38.38,0,0,1,.37-.35.36.36,0,0,1,.35.37h0a.35.35,0,0,1-.36.34Zm-68-1h0a.36.36,0,0,1,.36-.36.36.36,0,1,1,0,.72h0a.36.36,0,0,1-.36-.36m67.67-.55v-.06a.36.36,0,1,1,.71,0v.06a.34.34,0,0,1-.35.36h0a.36.36,0,0,1-.35-.36m-67.31-.29a.36.36,0,0,1-.35-.36.35.35,0,0,1,.37-.35.36.36,0,1,1,0,.71Zm67.27-1h0a.37.37,0,0,1,.35-.37.35.35,0,0,1,.37.34.36.36,0,0,1-.34.38h0a.36.36,0,0,1-.36-.35m-67.23-.24a.36.36,0,1,1,0-.72.37.37,0,0,1,.34.39.36.36,0,0,1-.36.33Zm67.16-.94h0a.36.36,0,0,1,.72,0,.35.35,0,0,1-.33.38h0a.37.37,0,0,1-.36-.34m-67.08-.25a.36.36,0,0,1,.07-.71.35.35,0,0,1,.32.39.36.36,0,0,1-.36.32h0m67-.92a.35.35,0,0,1,.31-.4.36.36,0,0,1,.4.32.36.36,0,0,1-.31.39h0a.36.36,0,0,1-.35-.32m-66.85-.27a.36.36,0,1,1,.1-.71.37.37,0,0,1,.31.4.37.37,0,0,1-.36.31h-.05M82.05,45a.36.36,0,0,1,.3-.41.36.36,0,1,1,.11.71h0a.37.37,0,0,1-.36-.3M15.53,44.7a.36.36,0,0,1-.3-.41.37.37,0,0,1,.42-.3.36.36,0,0,1,.29.42.35.35,0,0,1-.35.29h-.06m66.33-.89a.36.36,0,0,1,.28-.42.36.36,0,0,1,.42.29.36.36,0,0,1-.29.42h-.06a.36.36,0,0,1-.35-.3m-66.13-.29a.36.36,0,0,1-.28-.42.37.37,0,0,1,.43-.28.36.36,0,0,1,.28.42.37.37,0,0,1-.35.29h-.08m65.89-.86a.36.36,0,0,1,.27-.43.35.35,0,0,1,.43.27h0a.37.37,0,0,1-.27.43H82a.36.36,0,0,1-.35-.28M16,42.35a.35.35,0,0,1-.26-.43.36.36,0,0,1,.43-.26.35.35,0,0,1-.08.7H16m65.36-.84a.36.36,0,1,1,.44.25l-.09,0a.36.36,0,0,1-.35-.27M16.27,41.2a.37.37,0,0,1-.25-.45.36.36,0,0,1,.7.2.36.36,0,0,1-.35.26h-.1M81,40.37a.36.36,0,0,1,.24-.45.37.37,0,0,1,.45.25.35.35,0,0,1-.24.44l-.1,0a.36.36,0,0,1-.35-.26M16.6,40.05a.35.35,0,0,1-.23-.45.35.35,0,0,1,.45-.23.36.36,0,0,1-.11.7l-.11,0m64.06-.8a.37.37,0,0,1,.23-.46.36.36,0,0,1,.23.68l-.12,0a.37.37,0,0,1-.34-.24M17,38.91a.36.36,0,1,1,.25-.67.36.36,0,0,1-.12.69.3.3,0,0,1-.13,0m63.29-.78a.36.36,0,0,1,.21-.46.35.35,0,0,1,.46.21.36.36,0,0,1-.2.46l-.13,0a.36.36,0,0,1-.34-.24m-62.87-.34a.36.36,0,0,1,.26-.67.36.36,0,0,1-.13.69l-.13,0M79.82,37a.36.36,0,0,1,.67-.28.36.36,0,0,1-.2.47.32.32,0,0,1-.14,0,.38.38,0,0,1-.33-.22m-62-.36a.35.35,0,1,1,.14,0,.36.36,0,0,1-.14,0M79.35,36a.35.35,0,0,1,.18-.48.36.36,0,0,1,.47.18.35.35,0,0,1-.18.47.23.23,0,0,1-.14,0,.36.36,0,0,1-.33-.21m-61-.37a.36.36,0,0,1,.31-.65.36.36,0,0,1,.17.48.35.35,0,0,1-.32.2.41.41,0,0,1-.16,0m60.51-.69a.37.37,0,0,1,.15-.49.38.38,0,0,1,.49.16.37.37,0,0,1-.16.49.45.45,0,0,1-.16,0,.36.36,0,0,1-.32-.19m-60-.38a.38.38,0,0,1-.15-.49.35.35,0,0,1,.48-.15.34.34,0,0,1,.15.48.34.34,0,0,1-.31.2.47.47,0,0,1-.17,0m59.42-.67a.36.36,0,1,1,.49.15.33.33,0,0,1-.17,0,.37.37,0,0,1-.32-.19m-58.85-.39a.36.36,0,0,1,.35-.62.35.35,0,0,1,.14.49.36.36,0,0,1-.32.18.34.34,0,0,1-.17,0m58.27-.63a.35.35,0,0,1,.12-.49.36.36,0,0,1,.49.12.36.36,0,0,1-.12.5A.41.41,0,0,1,78,33a.33.33,0,0,1-.31-.18M20,32.43a.36.36,0,0,1-.12-.49.37.37,0,0,1,.5-.12.36.36,0,0,1,.12.49h0a.38.38,0,0,1-.31.16.32.32,0,0,1-.19,0m57-.6h0a.36.36,0,0,1,.11-.5.38.38,0,0,1,.5.11.37.37,0,0,1-.11.5.36.36,0,0,1-.2.06.36.36,0,0,1-.3-.17m-56.4-.41a.36.36,0,0,1,.4-.6.36.36,0,0,1,.1.5.35.35,0,0,1-.3.16.36.36,0,0,1-.2-.06m55.74-.57a.36.36,0,0,1,.59-.41.35.35,0,0,1-.09.5.31.31,0,0,1-.2.07.38.38,0,0,1-.3-.16m-55.07-.42a.36.36,0,0,1,.42-.58.36.36,0,0,1,.09.5.37.37,0,0,1-.3.15.35.35,0,0,1-.21-.07m54.38-.53a.36.36,0,1,1,.51.07A.38.38,0,0,1,76,30a.37.37,0,0,1-.29-.14m-53.67-.43A.36.36,0,0,1,22,29a.34.34,0,0,1,.5-.06.35.35,0,0,1,.07.5.38.38,0,0,1-.29.14.4.4,0,0,1-.22-.08m.75-.93a.36.36,0,0,1-.05-.51.36.36,0,0,1,.51,0,.35.35,0,0,1,0,.5.34.34,0,0,1-.27.13.36.36,0,0,1-.23-.08m51.44-.48a.35.35,0,0,1,0-.5.36.36,0,1,1,.47.54.34.34,0,0,1-.5,0m-50.67-.43a.36.36,0,1,1,.51,0,.37.37,0,0,1-.27.12.36.36,0,0,1-.24-.09m49.88-.45h0a.35.35,0,1,1,.5,0,.31.31,0,0,1-.24.1.34.34,0,0,1-.26-.12m-49.07-.44a.35.35,0,1,1,.49-.51.35.35,0,0,1-.25.61.31.31,0,0,1-.24-.1m48.25-.41h0a.35.35,0,0,1,0-.5.36.36,0,0,1,.51,0,.37.37,0,0,1,0,.5.36.36,0,0,1-.26.11.32.32,0,0,1-.25-.11m-47.42-.44a.36.36,0,0,1,0-.51.36.36,0,0,1,.5.52.35.35,0,0,1-.25.1.38.38,0,0,1-.26-.11m46.57-.38h0a.34.34,0,0,1,0-.5.35.35,0,0,1,.51,0,.36.36,0,0,1-.25.62.33.33,0,0,1-.24-.1m-45.7-.44a.35.35,0,0,1,0-.51.36.36,0,0,1,.51,0,.35.35,0,0,1,0,.5.33.33,0,0,1-.24.1.34.34,0,0,1-.26-.12m44.82-.35h0a.35.35,0,0,1,0-.5.36.36,0,0,1,.55.47.39.39,0,0,1-.28.12.35.35,0,0,1-.23-.09M27,24.28a.36.36,0,0,1,0-.51.35.35,0,0,1,.51.05.34.34,0,0,1-.05.5.32.32,0,0,1-.23.09.37.37,0,0,1-.27-.13M70,24a.36.36,0,0,1,0-.5.35.35,0,0,1,.5-.06.37.37,0,0,1,.06.51.35.35,0,0,1-.28.13A.34.34,0,0,1,70,24m-42.1-.44A.36.36,0,0,1,28,23a.37.37,0,0,1,.51.06.37.37,0,0,1-.07.51.35.35,0,0,1-.22.08.37.37,0,0,1-.28-.14m41.17-.28h0a.37.37,0,0,1-.07-.51.35.35,0,0,1,.5-.07.38.38,0,0,1,.08.51.38.38,0,0,1-.29.14.36.36,0,0,1-.22-.07m-40.22-.45a.35.35,0,0,1,.07-.5.36.36,0,1,1,.43.58.35.35,0,0,1-.5-.08m39.26-.25A.35.35,0,0,1,68,22a.36.36,0,0,1,.5-.09.36.36,0,0,1,.08.5.36.36,0,0,1-.29.16.35.35,0,0,1-.21-.07M29.8,22.1a.37.37,0,0,1,.1-.5.36.36,0,0,1,.4.6.36.36,0,0,1-.2.06.38.38,0,0,1-.3-.16m37.32-.22h0a.36.36,0,0,1-.1-.49.35.35,0,0,1,.49-.11.36.36,0,0,1,.11.5.37.37,0,0,1-.3.16.36.36,0,0,1-.2-.06M30.8,21.44a.36.36,0,0,1,.12-.49.35.35,0,0,1,.49.11.37.37,0,0,1-.12.5.38.38,0,0,1-.19.05.35.35,0,0,1-.3-.17m35.32-.18a.37.37,0,0,1-.12-.5.36.36,0,0,1,.61.37.37.37,0,0,1-.31.18.41.41,0,0,1-.18,0m-34.3-.44a.36.36,0,1,1,.49.13.41.41,0,0,1-.18.05.35.35,0,0,1-.31-.18m33.27-.15a.37.37,0,0,1-.14-.49.36.36,0,0,1,.49-.14.35.35,0,0,1,.14.49.37.37,0,0,1-.31.18.39.39,0,0,1-.18,0m-32.24-.44a.36.36,0,0,1,.15-.48.35.35,0,0,1,.49.15.36.36,0,0,1-.15.48.33.33,0,0,1-.17,0,.37.37,0,0,1-.32-.19m31.2-.12a.36.36,0,1,1,.32-.64h0a.36.36,0,0,1,.16.49.36.36,0,0,1-.32.19.32.32,0,0,1-.16,0m-30.14-.43a.36.36,0,1,1,.48.17.41.41,0,0,1-.16,0,.35.35,0,0,1-.32-.2M63,19.6h0a.36.36,0,0,1-.17-.48.34.34,0,0,1,.47-.17.36.36,0,0,1,.18.47.36.36,0,0,1-.33.21.4.4,0,0,1-.15,0m-28-.43a.36.36,0,1,1,.47.18.25.25,0,0,1-.14,0,.35.35,0,0,1-.33-.21m26.91-.05h0a.36.36,0,0,1-.19-.47.35.35,0,0,1,.47-.19.36.36,0,0,1,.19.47.36.36,0,0,1-.33.22.32.32,0,0,1-.14,0M36.08,18.7a.36.36,0,0,1,.2-.47.37.37,0,0,1,.47.2.37.37,0,0,1-.2.47.34.34,0,0,1-.14,0,.36.36,0,0,1-.33-.22m24.72,0a.36.36,0,1,1,.46-.21.35.35,0,0,1-.33.24.28.28,0,0,1-.13,0m-23.61-.42a.37.37,0,0,1,.22-.46h0a.37.37,0,0,1,.46.22.36.36,0,0,1-.22.46l-.12,0a.35.35,0,0,1-.34-.24m22.5,0h0a.36.36,0,0,1-.22-.45.37.37,0,0,1,.46-.23.37.37,0,0,1,.22.46.35.35,0,0,1-.34.24.2.2,0,0,1-.11,0m-21.37-.41a.36.36,0,1,1,.45.23l-.11,0a.36.36,0,0,1-.34-.25m20.24.05a.35.35,0,0,1-.25-.44.36.36,0,0,1,.45-.24.35.35,0,0,1,.24.44.35.35,0,0,1-.34.26l-.1,0m-19.1-.41a.36.36,0,0,1,.25-.44h0a.36.36,0,0,1,.19.69l-.1,0a.36.36,0,0,1-.34-.27m18,.09a.36.36,0,0,1-.26-.43.37.37,0,0,1,.44-.26.35.35,0,0,1,.25.44.35.35,0,0,1-.34.27l-.09,0m-16.81-.4a.35.35,0,0,1,.26-.43.36.36,0,0,1,.44.26.35.35,0,0,1-.27.43l-.08,0a.37.37,0,0,1-.35-.28m15.66.13h0A.36.36,0,0,1,56,16.9a.35.35,0,0,1,.43-.27.35.35,0,0,1,.27.42.36.36,0,0,1-.35.28h-.08m-14.5-.4a.37.37,0,0,1,.28-.43h0a.36.36,0,1,1,.15.71h-.08a.36.36,0,0,1-.35-.28m13.34.16a.36.36,0,0,1-.28-.42.36.36,0,1,1,.7.13.35.35,0,0,1-.35.3h-.07M42.94,16.7a.36.36,0,0,1,.3-.42.36.36,0,0,1,.41.3.35.35,0,0,1-.29.41H43.3a.37.37,0,0,1-.36-.3m11,.19h0a.34.34,0,0,1-.3-.4.34.34,0,0,1,.4-.3.35.35,0,0,1,.31.4.37.37,0,0,1-.36.31h0m-9.83-.38a.38.38,0,0,1,.31-.41.36.36,0,0,1,.4.31.35.35,0,0,1-.3.4h-.05a.37.37,0,0,1-.36-.31m8.66.23h0a.36.36,0,0,1-.31-.4.35.35,0,0,1,.4-.31h0a.36.36,0,0,1,0,.71h0m-7.47-.38a.35.35,0,0,1,.32-.39.36.36,0,0,1,.07.71h0a.36.36,0,0,1-.36-.32m6.29.27a.36.36,0,0,1,.06-.72.37.37,0,0,1,.33.39.37.37,0,0,1-.36.33Zm-5.1-.38a.36.36,0,1,1,.71,0,.35.35,0,0,1-.33.38h0a.36.36,0,0,1-.35-.34m3.92.31h0a.36.36,0,0,1,0-.72.37.37,0,0,1,.35.37.36.36,0,0,1-.36.35Zm-2.73-.37a.36.36,0,1,1,.72,0,.37.37,0,0,1-.35.37h0a.36.36,0,0,1-.36-.35m1.55.34a.36.36,0,1,1,0-.72.36.36,0,0,1,0,.72Z"/></g></svg>